solid tetrahedron
   facet normal -8.164966e-001 3.333333e-001 4.714045e-001
      outer loop
         vertex 5.000041e-001 8.165006e-001 2.886792e-001
         vertex 4.058175e-006 4.058175e-006 4.058175e-006
         vertex 5.000041e-001 4.058175e-006 8.660294e-001
      endloop
   endfacet
   facet normal 0.000000e+000 -1.000000e+000 0.000000e+000
      outer loop
         vertex 1.000004e+000 4.058175e-006 4.058175e-006
         vertex 5.000041e-001 4.058175e-006 8.660294e-001
         vertex 4.058175e-006 4.058175e-006 4.058175e-006
      endloop
   endfacet
   facet normal -5.551115e-017 3.333333e-001 -9.428090e-001
      outer loop
         vertex 1.000004e+000 4.058175e-006 4.058175e-006
         vertex 4.058175e-006 4.058175e-006 4.058175e-006
         vertex 5.000041e-001 8.165006e-001 2.886792e-001
      endloop
   endfacet
   facet normal 8.164966e-001 3.333333e-001 4.714045e-001
      outer loop
         vertex 5.000041e-001 4.058175e-006 8.660294e-001
         vertex 1.000004e+000 4.058175e-006 4.058175e-006
         vertex 5.000041e-001 8.165006e-001 2.886792e-001
      endloop
   endfacet
endsolid
